<svg version="1.2" xmlns="http://www.w3.org/2000/svg" viewBox="0 0 24 24" width="24" height="24">
	<title>check</title>
	<defs>
		<clipPath clipPathUnits="userSpaceOnUse" id="cp1">
			<path d="m0 0h24v24h-24z"/>
		</clipPath>
	</defs>
	<style>
		.s0 { fill: #6b63fb } 
	</style>
	<g id="Clip-Path" clip-path="url(#cp1)">
		<g>
			<path class="s0" d="m12 22c-5.5 0-10-4.5-10-10 0-5.5 4.5-10 10-10 5.5 0 10 4.5 10 10 0 5.5-4.5 10-10 10zm0-2c2.1 0 4.2-0.8 5.7-2.3 1.5-1.5 2.3-3.6 2.3-5.7 0-2.1-0.8-4.2-2.3-5.7-1.5-1.5-3.6-2.3-5.7-2.3-2.1 0-4.2 0.8-5.7 2.3-1.5 1.5-2.3 3.6-2.3 5.7 0 2.1 0.8 4.2 2.3 5.7 1.5 1.5 3.6 2.3 5.7 2.3zm-1-4l-4.2-4.2 1.4-1.5 2.8 2.9 5.7-5.7 1.4 1.4z"/>
		</g>
	</g>
</svg>