<?xml version="1.0" encoding="UTF-8"?>
<svg version="1.1" xmlns="http://www.w3.org/2000/svg" width="386" height="314">
<path d="M0 0 C-2.06567245 29.22772355 -5.68239936 58.36272424 -9.421875 87.41796875 C-10.0021167 91.93981925 -10.50805511 96.46772995 -11 101 C-12.41666667 101.22916667 -13.83333333 101.45833333 -15.25 101.6875 C-18.49336431 102.21216187 -19.76615998 102.76701969 -22.125 105.1171875 C-24.27009616 108.41527284 -25.5466165 111.72502693 -26.75 115.4375 C-27.26412985 116.96014108 -27.7798353 118.4822508 -28.296875 120.00390625 C-28.56951172 120.81230957 -28.84214844 121.62071289 -29.12304688 122.45361328 C-30.35127668 126.01999325 -31.66244871 129.55399285 -32.97094727 133.09155273 C-36.22015019 141.88020339 -39.27439828 150.6969342 -42.00976562 159.65966797 C-43.25603994 163.73198806 -44.62168324 167.71644393 -46.14526367 171.69628906 C-47.20208671 174.54467014 -48.17942315 177.41617866 -49.15625 180.29296875 C-49.53910156 181.41767578 -49.92195313 182.54238281 -50.31640625 183.70117188 C-51.10903698 186.03590101 -51.89806931 188.37185473 -52.68359375 190.70898438 C-53.06644531 191.82982422 -53.44929688 192.95066406 -53.84375 194.10546875 C-54.18599609 195.11762451 -54.52824219 196.12978027 -54.88085938 197.17260742 C-56.01611866 200.04072213 -57.21707558 202.48170273 -59 205 C-67.02591365 208.14741712 -75.50548364 208.15666116 -84 208 C-85.38265967 204.15576871 -84.71798123 200.64788612 -84.109375 196.71875 C-84.00504654 196.00086807 -83.90071808 195.28298615 -83.79322815 194.54335022 C-83.56849086 192.99867369 -83.34056278 191.45445869 -83.10977173 189.91067505 C-82.5018931 185.83754277 -81.91943854 181.7608344 -81.33984375 177.68359375 C-81.22307785 176.8634227 -81.10631195 176.04325165 -80.98600769 175.19822693 C-79.77424508 166.57807054 -78.84065742 157.93662138 -77.98925781 149.2734375 C-77.34624384 142.82326622 -76.47980712 136.44819845 -75.46166992 130.04663086 C-74.82963746 125.87575139 -74.39843361 121.69849421 -74 117.5 C-73.46759925 112.15856266 -72.87291885 106.86139021 -72 101.5625 C-70.92385984 95.00397648 -70.3000963 88.41684698 -69.69726562 81.80102539 C-69.62056641 80.97852295 -69.54386719 80.15602051 -69.46484375 79.30859375 C-69.399021 78.57439209 -69.33319824 77.84019043 -69.26538086 77.08374023 C-68.99936205 74.99499089 -68.55240976 73.03008438 -68 71 C-69.04865234 71.15146484 -70.09730469 71.30292969 -71.17773438 71.45898438 C-75.09816238 72.02372054 -79.01961515 72.58104625 -82.94140625 73.13623047 C-84.63309746 73.37674764 -86.3245109 73.6192276 -88.015625 73.86376953 C-90.45761439 74.21653333 -92.90054209 74.56203942 -95.34375 74.90625 C-96.08991577 75.0156189 -96.83608154 75.12498779 -97.6048584 75.2376709 C-102.44975855 75.91113831 -107.10802096 76.09667943 -112 76 C-112.25057841 69.42927736 -111.90513124 63.01935104 -111.125 56.5 C-111.04652832 55.80583984 -110.96805664 55.11167969 -110.88720703 54.39648438 C-110.44119971 50.90718332 -109.98749617 48.98124426 -108 46 C-105.49609375 44.97265625 -105.49609375 44.97265625 -102.4375 44.0625 C-88.85254051 39.77081446 -76.43327139 33.21425186 -65.14453125 24.50390625 C-63 23 -63 23 -61 23 C-61 22.34 -61 21.68 -61 21 C-59.64453125 19.703125 -59.64453125 19.703125 -57.8125 18.25 C-53.91255013 15.02245528 -50.29339615 11.58679229 -48 7 C-47.34 7 -46.68 7 -46 7 C-46 6.34 -46 5.68 -46 5 C-45.37134033 4.91959473 -44.74268066 4.83918945 -44.0949707 4.75634766 C-41.16726191 4.38091111 -38.23984807 4.0032389 -35.3125 3.625 C-34.25844971 3.48924561 -33.20439941 3.35349121 -32.1184082 3.21362305 C-25.72242643 2.38146138 -19.36071104 1.47206928 -13.01171875 0.33203125 C-8.67402601 -0.1461839 -4.35927844 -0.06265024 0 0 Z " fill="#0FE3A1" transform="translate(120,22)"/>
<path d="M0 0 C2.72144622 2.75948423 2.96936405 5.6675646 3.47998047 9.36230469 C3.65562782 10.48229355 3.65562782 10.48229355 3.83482361 11.62490845 C4.21326724 14.06384426 4.56742426 16.50564465 4.92138672 18.94824219 C5.173912 20.60310089 5.4279897 22.25772342 5.68359375 23.91210938 C6.47139492 29.04610154 7.22973284 34.1842153 7.98388672 39.32324219 C8.49343536 42.78971219 9.00485074 46.25589534 9.51904297 49.72167969 C9.640522 50.5415889 9.76200104 51.36149811 9.88716125 52.20625305 C10.66479362 57.39698144 11.56300656 62.55384023 12.53491211 67.71191406 C13.09956484 70.97926659 13.38336939 74.20192231 13.60888672 77.51074219 C13.69525391 78.68765625 13.78162109 79.86457031 13.87060547 81.07714844 C13.92138672 83.94824219 13.92138672 83.94824219 12.92138672 85.94824219 C5.71453512 87.87165233 -1.6592896 88.24370198 -9.07861328 87.94824219 C-10.98469426 84.7364207 -11.30127575 82.40941616 -11.20361328 78.69824219 C-11.18556641 77.80621094 -11.16751953 76.91417969 -11.14892578 75.99511719 C-11.12572266 75.31964844 -11.10251953 74.64417969 -11.07861328 73.94824219 C-12.06861328 74.44324219 -12.06861328 74.44324219 -13.07861328 74.94824219 C-14.45067849 75.16515611 -15.830006 75.33747381 -17.21142578 75.48339844 C-18.01708984 75.57041016 -18.82275391 75.65742188 -19.65283203 75.74707031 C-20.49458984 75.83408203 -21.33634766 75.92109375 -22.20361328 76.01074219 C-23.47785156 76.14706055 -23.47785156 76.14706055 -24.77783203 76.28613281 C-26.87772779 76.51027899 -28.97812622 76.72970666 -31.07861328 76.94824219 C-31.19978516 77.62371094 -31.32095703 78.29917969 -31.44580078 78.99511719 C-31.61337891 79.88714844 -31.78095703 80.77917969 -31.95361328 81.69824219 C-32.11603516 82.57996094 -32.27845703 83.46167969 -32.44580078 84.37011719 C-33.54493452 88.84806948 -33.54493452 88.84806948 -35.07861328 90.94824219 C-42.72464753 93.96611727 -50.95341665 94.38788209 -59.07861328 93.94824219 C-58.40108141 85.30971078 -55.71622457 77.29520586 -52.67260742 69.21606445 C-51.1891758 65.27511758 -49.79825514 61.30561553 -48.44189453 57.31933594 C-48.20120743 56.61527618 -47.96052032 55.91121643 -47.71253967 55.18582153 C-47.20109579 53.68956379 -46.69013413 52.19314114 -46.17962646 50.69656372 C-44.84565333 46.78721392 -43.50671066 42.87956579 -42.16845703 38.97167969 C-41.90369568 38.19826736 -41.63893433 37.42485504 -41.3661499 36.62800598 C-39.06955775 29.91962134 -36.76993772 23.21234642 -34.45361328 16.51074219 C-34.13561768 15.58382568 -33.81762207 14.65690918 -33.48999023 13.7019043 C-33.19697021 12.85635986 -32.9039502 12.01081543 -32.60205078 11.13964844 C-32.35374512 10.4197876 -32.10543945 9.69992676 -31.84960938 8.95825195 C-31.0399252 6.84738122 -30.23659125 4.89317253 -29.07861328 2.94824219 C-21.70223321 -0.06936784 -7.30199326 -3.69473654 0 0 Z M-16.07861328 24.94824219 C-17.36564403 29.16418068 -18.64724008 33.38172107 -19.92382812 37.60083008 C-20.35886058 39.03585323 -20.79537424 40.47042823 -21.23339844 41.90454102 C-21.86279118 43.96612337 -22.48683741 46.02925937 -23.10986328 48.09277344 C-23.48691406 49.33389893 -23.86396484 50.57502441 -24.25244141 51.85375977 C-25.20758693 54.89750988 -25.20758693 54.89750988 -25.07861328 57.94824219 C-21.11861328 57.28824219 -17.15861328 56.62824219 -13.07861328 55.94824219 C-12.97520082 48.82570925 -13.34258934 41.90498605 -14.07861328 34.82324219 C-14.17400391 33.86675781 -14.26939453 32.91027344 -14.36767578 31.92480469 C-14.60027578 29.59880465 -14.83731008 27.27335259 -15.07861328 24.94824219 C-15.40861328 24.94824219 -15.73861328 24.94824219 -16.07861328 24.94824219 Z " fill="#FFFFFF" transform="translate(134.07861328125,131.0517578125)"/>
<path d="M0 0 C-0.39917032 1.44245638 -0.82014517 2.87888841 -1.25 4.3125 C-1.48203125 5.11300781 -1.7140625 5.91351563 -1.953125 6.73828125 C-3.25506778 9.55106062 -4.2989638 10.48322925 -7 12 C-18.74480951 15.28186139 -31.32589892 15.82227154 -43.4309082 16.91015625 C-50.36739242 17.53385954 -57.27191121 18.260339 -64.17893982 19.1532135 C-70.81070938 19.99911119 -77.4547246 20.72091911 -84.1015625 21.4375 C-85.27583298 21.5642662 -86.45010345 21.69103241 -87.65995789 21.82164001 C-92.54783451 22.3482344 -97.43591776 22.87286739 -102.32421875 23.39550781 C-119.49386189 25.21190407 -119.49386189 25.21190407 -136.60205078 27.51708984 C-143.49781191 28.49710245 -150.42563097 29.22854878 -157.34707642 30.00201416 C-160.19930365 30.32080485 -163.0512191 30.64227109 -165.90307617 30.96435547 C-171.93513144 31.64515794 -177.9675403 32.32279177 -184 33 C-191.77111683 33.87249592 -199.54204781 34.74660252 -207.3125 35.625 C-208.70746704 35.7826181 -208.70746704 35.7826181 -210.13061523 35.94342041 C-221.35775259 37.21439385 -232.57414464 38.53197901 -243.77172852 40.04516602 C-249.42323183 40.80792869 -255.07905565 41.46217876 -260.75 42.0625 C-266.23427771 42.64445403 -271.6158574 43.43387 -277.02734375 44.49609375 C-283.29013587 45.55772343 -289.62506365 46.13200899 -295.94140625 46.78417969 C-297.74333393 46.97309146 -299.54370497 47.17673258 -301.34375 47.3828125 C-303.55815503 47.63097858 -305.77871724 47.82370772 -308 48 C-309 47 -309 47 -309.375 44.125 C-309.25125 43.09375 -309.1275 42.0625 -309 41 C-305.207672 38.09447113 -301.086416 37.06314329 -296.5 36.0625 C-295.76370361 35.8962915 -295.02740723 35.73008301 -294.26879883 35.55883789 C-280.60912345 32.52857334 -266.86249102 30.0082757 -253.01049805 28.03881836 C-248.969364 27.46261674 -244.95702198 26.81836202 -240.9453125 26.0625 C-233.49733163 24.68746821 -226.00087786 23.66114559 -218.5 22.625 C-217.71988556 22.51672882 -216.93977112 22.40845764 -216.13601685 22.29690552 C-200.94700545 20.19603395 -185.73144975 18.4021749 -170.4911499 16.71977234 C-165.52781538 16.17175924 -160.56615611 15.61052877 -155.60546875 15.0390625 C-154.9106842 14.95904495 -154.21589966 14.8790274 -153.50006104 14.79658508 C-152.08672941 14.63378212 -150.67339934 14.47096569 -149.2600708 14.30813599 C-135.03136903 12.6711499 -120.79762693 11.08001277 -106.5625 9.5 C-105.61003387 9.39424652 -104.65756775 9.28849304 -103.67623901 9.17953491 C-94.58508855 8.17039263 -85.49372132 7.16328626 -76.40139771 6.1647644 C-47.87758142 3.03401767 -47.87758142 3.03401767 -19.41796875 -0.62890625 C-18.72550049 -0.72413574 -18.03303223 -0.81936523 -17.31958008 -0.91748047 C-15.55350759 -1.16271288 -13.78841102 -1.41494807 -12.0234375 -1.66796875 C-3.84858569 -2.56572379 -3.84858569 -2.56572379 0 0 Z " fill="#2AE4A2" transform="translate(352,210)"/>
<path d="M0 0 C-0.78744594 22.85193727 -2.27086742 45.64061287 -4.30865479 68.41430664 C-4.43531417 69.83628548 -4.55949621 71.25848736 -4.68109131 72.6809082 C-4.85200722 74.66430729 -5.0351241 76.64664347 -5.21875 78.62890625 C-5.32123047 79.76400635 -5.42371094 80.89910645 -5.52929688 82.06860352 C-5.97240518 84.82814781 -6.46859426 86.67691495 -8 89 C-11.98749976 90.37227469 -16.13263745 90.10156414 -20.3125 90.0625 C-21.56675781 90.05347656 -22.82101563 90.04445313 -24.11328125 90.03515625 C-25.06589844 90.02355469 -26.01851562 90.01195312 -27 90 C-27.15318589 82.4024052 -26.6801662 74.93955113 -26 67.375 C-25.90460938 66.27542969 -25.80921875 65.17585938 -25.7109375 64.04296875 C-25.47777884 61.36164421 -25.23943097 58.68077173 -25 56 C-29.62 56.33 -34.24 56.66 -39 57 C-38.95875 58.258125 -38.9175 59.51625 -38.875 60.8125 C-38.875 66.14262631 -39.33632682 71.39020631 -39.875 76.6875 C-39.95347168 77.49485596 -40.03194336 78.30221191 -40.11279297 79.1340332 C-40.62933116 83.96183116 -41.52563757 88.37248431 -43 93 C-49.26253419 94.5207301 -55.60090176 94.05980466 -62 94 C-62.45807742 79.46876638 -61.21985 65.09989341 -59.97363281 50.63208008 C-59.68019971 47.22528596 -59.39838029 43.81764756 -59.12001991 40.40959263 C-58.84886871 37.10719931 -58.5686214 33.80559862 -58.2890625 30.50390625 C-58.19001617 29.29642227 -58.09096985 28.08893829 -57.98892212 26.84486389 C-57.40165516 20.11383783 -56.50863457 13.58858083 -55 7 C-50.67669032 5.39269974 -46.78440466 4.63296992 -42.1875 4.3125 C-40.47626953 4.18294922 -40.47626953 4.18294922 -38.73046875 4.05078125 C-37.82941406 4.03402344 -36.92835938 4.01726562 -36 4 C-35 5 -35 5 -34.8671875 7.88671875 C-34.91416753 30.74250259 -34.91416753 30.74250259 -37 37 C-36.31292969 36.855625 -35.62585938 36.71125 -34.91796875 36.5625 C-34.01691406 36.376875 -33.11585938 36.19125 -32.1875 36 C-31.29417969 35.814375 -30.40085938 35.62875 -29.48046875 35.4375 C-27 35 -27 35 -24 35 C-23.92483154 34.0713916 -23.84966309 33.1427832 -23.7722168 32.18603516 C-23.48697901 28.74464016 -23.18929327 25.30479919 -22.88305664 21.86523438 C-22.75303564 20.37575529 -22.62800715 18.88583169 -22.50805664 17.39550781 C-22.3348656 15.25449589 -22.14383762 13.11571958 -21.94921875 10.9765625 C-21.83924561 9.68830566 -21.72927246 8.40004883 -21.6159668 7.07275391 C-21 4 -21 4 -18 2 C-15.29296875 1.3671875 -15.29296875 1.3671875 -12.1875 0.875 C-10.66189453 0.62363281 -10.66189453 0.62363281 -9.10546875 0.3671875 C-6.03757182 0.00444245 -3.0859734 -0.06457941 0 0 Z " fill="#FFFFFF" transform="translate(215,121)"/>
<path d="M0 0 C0.74862305 -0.01756348 1.49724609 -0.03512695 2.26855469 -0.05322266 C9.7842779 -0.04485325 15.45467596 2.45245446 21.05078125 7.5078125 C28.13194589 15.6256737 27.82687655 26.28345204 27.875 36.4375 C27.895625 37.50226563 27.91625 38.56703125 27.9375 39.6640625 C27.98872211 50.21581618 25.55606158 59.57844276 21.625 69.3125 C20.965 69.3125 20.305 69.3125 19.625 69.3125 C19.52832031 69.88613281 19.43164062 70.45976562 19.33203125 71.05078125 C18.4728458 73.7992253 17.20541119 75.33956817 15.3125 77.5 C14.71824219 78.19480469 14.12398438 78.88960938 13.51171875 79.60546875 C11.50583896 81.42031237 10.26643106 81.92182477 7.625 82.3125 C7.625 82.9725 7.625 83.6325 7.625 84.3125 C0.86887115 87.83045927 -5.40388785 89.22488452 -12.9375 90.0625 C-13.92685547 90.18753906 -14.91621094 90.31257813 -15.93554688 90.44140625 C-21.44778469 91.10711778 -26.82313974 91.545717 -32.375 91.3125 C-34.22170054 89.46579946 -33.52176904 86.51546394 -33.5234375 84.04296875 C-33.4916147 74.20890324 -32.73085458 64.42695447 -32 54.625 C-31.86237203 52.72619194 -31.72525106 50.82734707 -31.58862305 48.9284668 C-31.31657262 45.15783225 -31.04172545 41.38742003 -30.76416016 37.6171875 C-30.41269146 32.83902278 -30.06921218 28.06033224 -29.73046875 23.28125 C-29.28217102 16.95807657 -28.830415 10.63516465 -28.375 4.3125 C-19.10758292 1.04971114 -9.77305852 0.12241408 0 0 Z M-8.375 20.3125 C-9.52363752 23.75841255 -9.68813648 26.73790428 -9.91015625 30.3671875 C-9.95313339 31.06458038 -9.99611053 31.76197327 -10.04039001 32.48049927 C-10.13057099 33.96148843 -10.21869818 35.44260387 -10.30493164 36.92382812 C-10.43500726 39.14493522 -10.57342598 41.36540267 -10.71289062 43.5859375 C-11.23527916 52.17127944 -11.501521 60.70719761 -11.375 69.3125 C-6.44169848 69.53787926 -4.29304766 68.3969205 -0.375 65.3125 C5.43279639 59.50470361 7.00367438 51.83314053 7.08398438 43.8515625 C7.07689453 43.01367188 7.06980469 42.17578125 7.0625 41.3125 C7.08248047 40.47460938 7.10246094 39.63671875 7.12304688 38.7734375 C7.11832696 32.67530238 5.93081352 27.51105107 2.625 22.3125 C-0.46388522 20.25324319 -1.08435927 20.0734626 -4.5625 20.1875 C-5.820625 20.22875 -7.07875 20.27 -8.375 20.3125 Z " fill="#FFFFFF" transform="translate(358.375,103.6875)"/>
<path d="M0 0 C0.93642334 -0.00918457 1.87284668 -0.01836914 2.83764648 -0.02783203 C7.38141099 -0.00715035 11.07132619 0.07541761 15.1875 2.25 C15.1875 2.91 15.1875 3.57 15.1875 4.25 C15.8475 4.25 16.5075 4.25 17.1875 4.25 C23.72401142 16.91449088 21.81941612 30.92824516 18.1875 44.25 C16.7853962 47.46732748 15.20445671 50.38002207 13.1875 53.25 C12.5275 53.25 11.8675 53.25 11.1875 53.25 C10.960625 53.848125 10.73375 54.44625 10.5 55.0625 C8.53179259 58.34284569 5.94469624 59.77797363 2.25073242 60.77026367 C0.04803602 61.21393415 -2.15533358 61.58883137 -4.375 61.9375 C-5.12974609 62.06705078 -5.88449219 62.19660156 -6.66210938 62.33007812 C-10.10664139 62.90366099 -13.31182169 63.25 -16.8125 63.25 C-16.83755615 63.89549805 -16.8626123 64.54099609 -16.88842773 65.20605469 C-17.00464433 68.13755894 -17.12725442 71.06876217 -17.25 74 C-17.28931641 75.01578125 -17.32863281 76.0315625 -17.36914062 77.078125 C-17.41103516 78.0578125 -17.45292969 79.0375 -17.49609375 80.046875 C-17.53275146 80.94760742 -17.56940918 81.84833984 -17.60717773 82.77636719 C-17.79556407 85.04596339 -18.18616501 87.06562887 -18.8125 89.25 C-23.43709244 90.42700048 -27.89116462 90.36408412 -32.625 90.3125 C-33.80739258 90.30573242 -33.80739258 90.30573242 -35.01367188 90.29882812 C-36.94664761 90.28711312 -38.87958393 90.26917998 -40.8125 90.25 C-40.75698975 89.40171631 -40.70147949 88.55343262 -40.64428711 87.67944336 C-40.08955172 79.01918987 -39.59450602 70.35690757 -39.12890625 61.69140625 C-38.94124525 58.23851197 -38.75322643 54.78563728 -38.56518555 51.33276367 C-38.4384968 48.98780221 -38.31349403 46.64274906 -38.19018555 44.29760742 C-37.48265388 30.88261954 -36.64141628 17.56362352 -34.8125 4.25 C-30.52162804 2.43589035 -26.48755902 1.61947528 -21.875 1.125 C-21.10518799 1.0415332 -20.33537598 0.95806641 -19.54223633 0.87207031 C-13.03090122 0.23782835 -6.54004116 0.03592532 0 0 Z M-13.8125 20.25 C-15.01520964 22.65541929 -15.01566663 24.35366591 -15.12890625 27.0390625 C-15.17080078 27.98007812 -15.21269531 28.92109375 -15.25585938 29.890625 C-15.29517578 30.87546875 -15.33449219 31.8603125 -15.375 32.875 C-15.41818359 33.86757813 -15.46136719 34.86015625 -15.50585938 35.8828125 C-15.61211069 38.33839838 -15.71414964 40.79408703 -15.8125 43.25 C-9.57131083 43.38003038 -9.57131083 43.38003038 -3.8125 41.25 C-1.52545698 37.81943547 -1.37875234 35.93977279 -1.0625 31.875 C-0.96453125 30.75351562 -0.8665625 29.63203125 -0.765625 28.4765625 C-0.81354975 25.17774233 -1.29077743 23.15558874 -2.8125 20.25 C-6.30433353 18.43941965 -10.10122951 19.47973631 -13.8125 20.25 Z " fill="#18E4A2" transform="translate(325.8125,12.75)"/>
<path d="M0 0 C1.02963867 -0.01836914 1.02963867 -0.01836914 2.08007812 -0.03710938 C8.04079568 -0.05402721 13.13160982 0.81690655 18.1875 4.1875 C18.84662126 7.62488707 18.65049666 11.13195725 18.625 14.625 C18.6549707 16.07616211 18.6549707 16.07616211 18.68554688 17.55664062 C18.68490234 18.48541016 18.68425781 19.41417969 18.68359375 20.37109375 C18.68637329 21.64811157 18.68637329 21.64811157 18.68920898 22.95092773 C18.1875 25.1875 18.1875 25.1875 16.35864258 26.95654297 C13.37559452 28.64782019 10.84355633 28.70469718 7.4375 28.875 C5.68179688 28.97361328 5.68179688 28.97361328 3.890625 29.07421875 C2.55257812 29.13029297 2.55257812 29.13029297 1.1875 29.1875 C-0.57712683 26.09940305 -0.8125 24.95437864 -0.8125 21.1875 C-2.111875 21.31125 -3.41125 21.435 -4.75 21.5625 C-5.84634766 21.66691406 -5.84634766 21.66691406 -6.96484375 21.7734375 C-7.57457031 21.91007812 -8.18429688 22.04671875 -8.8125 22.1875 C-10.63146973 25.82543946 -10.06504202 29.42987393 -8.8125 33.1875 C-6.30802484 34.40619929 -6.30802484 34.40619929 -3.8125 35.1875 C-3.8125 35.8475 -3.8125 36.5075 -3.8125 37.1875 C-3.24273437 37.29707031 -2.67296875 37.40664062 -2.0859375 37.51953125 C4.66665499 39.50354038 10.69917787 44.93287897 15.1875 50.1875 C18.59202378 56.84179648 17.9016677 65.21252799 16.1875 72.3125 C13.8204879 79.29129625 8.85676295 85.04154235 2.375 88.5625 C0.99660176 89.14711248 -0.40145135 89.68680532 -1.8125 90.1875 C-2.63492188 90.48398438 -3.45734375 90.78046875 -4.3046875 91.0859375 C-13.95023382 94.13337098 -23.71688507 94.87069804 -33.0078125 90.453125 C-35.29393619 88.84986942 -36.4651589 87.65900301 -37.8125 85.1875 C-38.05262667 82.55182397 -38.14286419 80.18438175 -38.0625 77.5625 C-38.05734375 76.881875 -38.0521875 76.20125 -38.046875 75.5 C-37.96779337 70.49808673 -37.96779337 70.49808673 -36.8125 68.1875 C-30.84044237 65.85060788 -25.16184512 65.98083054 -18.8125 66.1875 C-16.8125 71.9375 -16.8125 71.9375 -16.8125 74.1875 C-11.37492249 73.22771797 -11.37492249 73.22771797 -6.75 70.5 C-5.35207824 67.05179299 -5.83038321 64.72312046 -6.8125 61.1875 C-8.59282171 60.1009358 -8.59282171 60.1009358 -10.8125 59.1875 C-29.15148845 48.39483444 -29.15148845 48.39483444 -32.8125 39.1875 C-33.09742869 36.44156959 -33.23403306 33.98252483 -33.1875 31.25 C-33.19910156 30.57259766 -33.21070313 29.89519531 -33.22265625 29.19726562 C-33.19320251 24.07722431 -32.02809025 20.68565048 -29.8125 16.1875 C-29.420625 15.383125 -29.02875 14.57875 -28.625 13.75 C-28.356875 13.234375 -28.08875 12.71875 -27.8125 12.1875 C-27.1525 12.1875 -26.4925 12.1875 -25.8125 12.1875 C-25.1525 10.8675 -24.4925 9.5475 -23.8125 8.1875 C-23.1525 8.1875 -22.4925 8.1875 -21.8125 8.1875 C-21.8125 7.5275 -21.8125 6.8675 -21.8125 6.1875 C-20.23175436 5.36997697 -18.64778777 4.55868003 -17.0625 3.75 C-15.73992187 3.07130859 -15.73992187 3.07130859 -14.390625 2.37890625 C-9.58324287 0.157313 -5.25423532 0.00485156 0 0 Z " fill="#1EE4A2" transform="translate(164.8125,28.8125)"/>
<path d="M0 0 C2.58757512 15.50395159 5.12395777 30.98719235 6.96923828 46.60009766 C7.82942448 53.84175154 8.86997675 61.04240692 10.08642578 68.2331543 C10.98923579 73.8547566 11.14061672 79.31134674 11 85 C4.52131092 86.472324 -1.34637204 87.21463316 -8 87 C-10.74809946 82.36934423 -10.13884536 78.27612362 -10 73 C-15.28 73.66 -20.56 74.32 -26 75 C-26.45375 76.918125 -26.9075 78.83625 -27.375 80.8125 C-28.24447923 84.48802585 -28.88955618 86.83433427 -31 90 C-33.609375 90.73046875 -33.609375 90.73046875 -36.75 91.1875 C-37.77609375 91.34605469 -38.8021875 91.50460938 -39.859375 91.66796875 C-42.93354367 91.99297414 -45.9113924 92.06010763 -49 92 C-50.35037779 88.27081101 -49.63957837 85.82110129 -48.5625 82.0625 C-48.18358852 80.71224105 -47.8046828 79.36198048 -47.42578125 78.01171875 C-47.2035791 77.2336084 -46.98137695 76.45549805 -46.75244141 75.65380859 C-45.56324158 71.45958337 -44.41506485 67.25415992 -43.26049805 63.05029297 C-42.22990188 59.3019009 -41.19355127 55.55513539 -40.15625 51.80859375 C-38.88884147 47.22944359 -37.62885745 42.64837287 -36.37969971 38.06420898 C-35.84757715 36.11169917 -35.31410994 34.15956136 -34.78027344 32.20751953 C-34.114257 29.77040441 -33.45067649 27.3326217 -32.79003906 24.89404297 C-31.26622164 19.33043046 -29.67954419 13.78955064 -27.953125 8.28515625 C-27.65051758 7.31586182 -27.34791016 6.34656738 -27.03613281 5.34790039 C-26 3 -26 3 -23 1 C-20.21215956 0.51005065 -17.49483774 0.12018612 -14.6875 -0.1875 C-13.56698242 -0.32961914 -13.56698242 -0.32961914 -12.42382812 -0.47460938 C-11.68970703 -0.55904297 -10.95558594 -0.64347656 -10.19921875 -0.73046875 C-9.53752686 -0.80676514 -8.87583496 -0.88306152 -8.1940918 -0.96166992 C-5.37942074 -1.01084132 -2.76005945 -0.52109568 0 0 Z M-15 29 C-17.21238207 34.30971698 -18.80980442 39.69029211 -20.25 45.25 C-20.43723633 45.94738281 -20.62447266 46.64476562 -20.81738281 47.36328125 C-21.77898862 51.18028631 -21.97861382 53.08554473 -21 57 C-18.03 56.67 -15.06 56.34 -12 56 C-12.49195343 46.97736473 -13.00179696 37.98382735 -14 29 C-14.33 29 -14.66 29 -15 29 Z " fill="#FFFFFF" transform="translate(310,111)"/>
<path d="M0 0 C0.02705308 2.41674224 0.04686438 4.8331794 0.0625 7.25 C0.07087891 7.93191406 0.07925781 8.61382812 0.08789062 9.31640625 C0.10444842 12.72731171 -0.08543413 15.72148706 -1 19 C-3.74928442 19.50423557 -6.49931143 20.00353426 -9.25 20.5 C-10.02730469 20.64308594 -10.80460937 20.78617188 -11.60546875 20.93359375 C-12.35957031 21.06894531 -13.11367188 21.20429687 -13.890625 21.34375 C-14.58188477 21.46943359 -15.27314453 21.59511719 -15.98535156 21.72460938 C-18 22 -18 22 -22 22 C-22.33 26.62 -22.66 31.24 -23 36 C-21.2984375 35.505 -21.2984375 35.505 -19.5625 35 C-15.00204151 33.84152933 -10.67838994 33.80506709 -6 34 C-5.94548286 36.04136395 -5.90697515 38.08315856 -5.875 40.125 C-5.85179687 41.26195312 -5.82859375 42.39890625 -5.8046875 43.5703125 C-6.00950309 47.16687428 -6.42874818 49.75400073 -8 53 C-13.04167442 56.01970692 -19.29011873 55.62352431 -25 56 C-25.33 60.29 -25.66 64.58 -26 69 C-22.875 68.47916667 -19.75 67.95833333 -16.625 67.4375 C-12.68605195 66.96210972 -8.96323603 66.93046954 -5 67 C-4.91312504 70.12482562 -4.85965432 73.24934246 -4.8125 76.375 C-4.78736328 77.26445313 -4.76222656 78.15390625 -4.73632812 79.0703125 C-4.72666016 79.92109375 -4.71699219 80.771875 -4.70703125 81.6484375 C-4.6913208 82.43395996 -4.67561035 83.21948242 -4.65942383 84.02880859 C-4.77181396 84.67930176 -4.8842041 85.32979492 -5 86 C-8.46093215 88.3072881 -10.61938863 88.54164571 -14.72265625 89.0703125 C-15.38277206 89.15626678 -16.04288788 89.24222107 -16.7230072 89.33078003 C-18.12205842 89.51098702 -19.52162211 89.68725286 -20.92163086 89.85986328 C-23.03194909 90.12121641 -25.13990698 90.39746427 -27.24804688 90.67578125 C-34.52136755 91.61104696 -41.66111021 92.29729936 -49 92 C-49.21224339 83.81791006 -48.63521756 75.80570851 -47.83224487 67.66571045 C-47.47420249 64.03214172 -47.13271103 60.39703839 -46.79296875 56.76171875 C-46.72414993 56.02669128 -46.65533112 55.29166382 -46.58442688 54.53436279 C-45.91925761 47.32190454 -45.41802192 40.10210901 -44.9375 32.875 C-44.30933608 23.51627745 -43.48117047 14.26519398 -42 5 C-36.11379018 2.63729798 -30.06160603 2.09761049 -23.8125 1.375 C-22.73935547 1.2409375 -21.66621094 1.106875 -20.56054688 0.96875 C-13.6734112 0.15212653 -6.93313837 -0.17135956 0 0 Z " fill="#1CE4A2" transform="translate(284,18)"/>
<path d="M0 0 C0.495 0.495 0.495 0.495 1 1 C0.98816644 3.64480039 0.90135441 6.23776404 0.75 8.875 C0.70939453 9.97521484 0.70939453 9.97521484 0.66796875 11.09765625 C0.36186815 16.51859917 0.36186815 16.51859917 -1.26977539 18.68920898 C-3.35129419 20.26613497 -4.64453409 20.49204924 -7.23046875 20.73046875 C-8.03291016 20.81103516 -8.83535156 20.89160156 -9.66210938 20.97460938 C-10.49548828 21.04486328 -11.32886719 21.11511719 -12.1875 21.1875 C-13.4549707 21.3102832 -13.4549707 21.3102832 -14.74804688 21.43554688 C-16.83092268 21.63559709 -18.91535003 21.81937284 -21 22 C-20.98839844 22.84304687 -20.97679687 23.68609375 -20.96484375 24.5546875 C-20.95582031 25.65039062 -20.94679687 26.74609375 -20.9375 27.875 C-20.92589844 28.96554688 -20.91429687 30.05609375 -20.90234375 31.1796875 C-21 34 -21 34 -22 36 C-20.78441406 35.91621094 -19.56882813 35.83242187 -18.31640625 35.74609375 C-16.73178879 35.64295297 -15.14715235 35.54010339 -13.5625 35.4375 C-12.35883789 35.35338867 -12.35883789 35.35338867 -11.13085938 35.26757812 C-9.08937889 35.1383705 -7.04453631 35.0648727 -5 35 C-4.67 35.33 -4.34 35.66 -4 36 C-4.090916 38.70108504 -4.23740766 41.36930311 -4.4375 44.0625 C-4.48970703 44.82111328 -4.54191406 45.57972656 -4.59570312 46.36132812 C-4.72575835 48.24121722 -4.86228038 50.12065685 -5 52 C-11.50186879 55.05825607 -16.78307991 55.59455505 -24 56 C-24 60.29 -24 64.58 -24 69 C-22.64003906 68.91621094 -21.28007812 68.83242187 -19.87890625 68.74609375 C-18.1067868 68.64295452 -16.33465047 68.54010485 -14.5625 68.4375 C-13.21575195 68.35338867 -13.21575195 68.35338867 -11.84179688 68.26757812 C-10.98779297 68.21923828 -10.13378906 68.17089844 -9.25390625 68.12109375 C-8.06776733 68.05039673 -8.06776733 68.05039673 -6.85766602 67.97827148 C-5 68 -5 68 -4 69 C-3.64292738 75.07023451 -3.93692055 81.02017809 -5 87 C-9.93615813 89.40533129 -15.11949093 89.91488896 -20.5 90.625 C-21.47727051 90.75688721 -22.45454102 90.88877441 -23.46142578 91.0246582 C-30.69299762 91.94968232 -37.70679553 92.3715406 -45 92 C-45.44780337 68.06739752 -43.56655139 44.28011322 -41.23388672 20.47509766 C-41.0631683 18.66847623 -40.90506985 16.86064945 -40.75439453 15.05224609 C-40.6717334 14.06949707 -40.58907227 13.08674805 -40.50390625 12.07421875 C-40.43115479 11.17662842 -40.35840332 10.27903809 -40.28344727 9.35424805 C-40 7 -40 7 -39 4 C-34.89338458 3.42250121 -30.7857367 2.85318806 -26.67700195 2.29101562 C-25.28314603 2.0991814 -23.88958091 1.90522042 -22.49633789 1.70898438 C-7.54440953 -0.39404968 -7.54440953 -0.39404968 0 0 Z " fill="#FFFFFF" transform="translate(262,116)"/>
<path d="M0 0 C1.91811433 1.91811433 1.17438668 5.26589291 1.1875 7.8125 C1.20167969 9.05644531 1.21585938 10.30039062 1.23046875 11.58203125 C1.01713939 14.7458142 0.81727284 16.44847551 -1 19 C-5.12307029 20.87412286 -8.52859947 21.07493967 -13 21 C-13.04487549 21.96373535 -13.08975098 22.9274707 -13.13598633 23.92041016 C-14.14897177 45.36285615 -15.60083841 66.66477045 -18 88 C-23.1054298 90.08019703 -27.3826308 91.41294843 -32.9375 91.75 C-34.62166016 91.86601562 -34.62166016 91.86601562 -36.33984375 91.984375 C-37.21769531 91.98953125 -38.09554687 91.9946875 -39 92 C-40 91 -40 91 -40.12841797 89.02685547 C-40.10319242 83.33355981 -39.77614462 77.778228 -39.125 72.125 C-38.06410251 62.37421537 -37.37608118 52.61075147 -36.78564453 42.82080078 C-36.34521762 36.06598196 -35.54497598 29.59427249 -34 23 C-34.99 23.33 -35.98 23.66 -37 24 C-41.08594833 25.1865126 -44.76342394 25.14865179 -49 25 C-49.05425226 22.60385874 -49.09379027 20.20896147 -49.125 17.8125 C-49.14175781 17.13896484 -49.15851563 16.46542969 -49.17578125 15.77148438 C-49.21556661 11.69348507 -49.01577703 8.57007073 -47 5 C-44.62353516 4.13134766 -44.62353516 4.13134766 -41.6640625 3.7890625 C-40.58415039 3.65145508 -39.50423828 3.51384766 -38.39160156 3.37207031 C-37.27237305 3.24928711 -36.15314453 3.12650391 -35 3 C-32.9034876 2.7173169 -30.80713071 2.43347784 -28.7109375 2.1484375 C-26.59931214 1.88774301 -24.4873283 1.62993617 -22.375 1.375 C-21.32054687 1.2409375 -20.26609375 1.106875 -19.1796875 0.96875 C-12.81645397 0.19697168 -6.41416049 -0.50615835 0 0 Z " fill="#1EE4A2" transform="translate(235,23)"/>
<path d="M0 0 C1.32 0 2.64 0 4 0 C4.92188461 2.76565382 5.11785222 4.38283702 5.09765625 7.23046875 C5.09443359 8.03291016 5.09121094 8.83535156 5.08789062 9.66210938 C5.07951172 10.49548828 5.07113281 11.32886719 5.0625 12.1875 C5.05798828 13.03248047 5.05347656 13.87746094 5.04882812 14.74804688 C5.03705403 16.83206155 5.0191189 18.91603977 5 21 C2.2109375 21.25 2.2109375 21.25 -1 21 C-2.8984375 19.25 -2.8984375 19.25 -4.375 17 C-5.12910156 15.88625 -5.12910156 15.88625 -5.8984375 14.75 C-6.26195313 14.1725 -6.62546875 13.595 -7 13 C-7.66 15.97 -8.32 18.94 -9 22 C-10.65 22 -12.3 22 -14 22 C-14.3690205 7.21867882 -14.3690205 7.21867882 -12 1 C-10.125 1.25 -10.125 1.25 -8 2 C-6.75 4.0625 -6.75 4.0625 -6 6 C-5.34 6 -4.68 6 -4 6 C-3.01 7.485 -3.01 7.485 -2 9 C-1.855625 7.700625 -1.71125 6.40125 -1.5625 5.0625 C-1.125 1.125 -1.125 1.125 0 0 Z " fill="#FFFFFF" transform="translate(130,267)"/>
<path d="M0 0 C1.32 0 2.64 0 4 0 C5.26267212 3.78801637 4.90185066 7.14852378 4.625 11.0625 C4.58117187 11.79533203 4.53734375 12.52816406 4.4921875 13.28320312 C4.13162202 18.73675595 4.13162202 18.73675595 3 21 C0.087425 20.91433603 -1.56798024 20.42089045 -3.66796875 18.375 C-5.15706463 16.62062576 -6.58267863 14.81285291 -8 13 C-8.33 16.3 -8.66 19.6 -9 23 C-10.65 23 -12.3 23 -14 23 C-14 16.4 -14 9.8 -14 3 C-12.35 2.67 -10.7 2.34 -9 2 C-6.07943633 4.44512307 -4.11104061 6.83343909 -2 10 C-1.93941406 9.36191406 -1.87882812 8.72382813 -1.81640625 8.06640625 C-1.73261719 7.24011719 -1.64882812 6.41382813 -1.5625 5.5625 C-1.48128906 4.73878906 -1.40007812 3.91507812 -1.31640625 3.06640625 C-1 1 -1 1 0 0 Z " fill="#FFFFFF" transform="translate(84,272)"/>
<path d="M0 0 C1.28938521 4.46325648 1.28938521 4.46325648 0.05859375 6.74609375 C-0.47636719 7.30425781 -1.01132812 7.86242187 -1.5625 8.4375 C-2.20058594 9.11296875 -2.83867187 9.7884375 -3.49609375 10.484375 C-4.32238281 11.31453125 -5.14867188 12.1446875 -6 13 C-6.5377002 13.54462891 -7.07540039 14.08925781 -7.62939453 14.65039062 C-11.19547406 18.26047168 -14.77853699 21.85259863 -18.40332031 25.40380859 C-19.87050584 26.87054544 -21.27847918 28.39589054 -22.6796875 29.92578125 C-25 32 -25 32 -29 32 C-29.56412384 28.77643523 -29.50150819 26.72676187 -27.6171875 23.99609375 C-25.8048355 21.92875716 -23.93782304 19.94995972 -22 18 C-21.13375 17.113125 -20.2675 16.22625 -19.375 15.3125 C-18.59125 14.549375 -17.8075 13.78625 -17 13 C-16.236875 12.236875 -15.47375 11.47375 -14.6875 10.6875 C-13.800625 9.800625 -12.91375 8.91375 -12 8 C-11.35546875 7.3090625 -10.7109375 6.618125 -10.046875 5.90625 C-9.35078125 5.1740625 -8.6546875 4.441875 -7.9375 3.6875 C-7.28652344 2.99011719 -6.63554687 2.29273438 -5.96484375 1.57421875 C-4 0 -4 0 0 0 Z " fill="#56E6A5" transform="translate(29,153)"/>
<path d="M0 0 C3.875 0.875 3.875 0.875 5 2 C4.30232558 8.39534884 4.30232558 8.39534884 3 11 C2.34 11 1.68 11 1 11 C0.7525 11.71542969 0.505 12.43085937 0.25 13.16796875 C-1.13863595 16.31409706 -2.84463946 18.63810963 -5 21.3125 C-5.70125 22.19550781 -6.4025 23.07851563 -7.125 23.98828125 C-8.053125 24.98408203 -8.053125 24.98408203 -9 26 C-9.66 26 -10.32 26 -11 26 C-11.226875 26.639375 -11.45375 27.27875 -11.6875 27.9375 C-13 30 -13 30 -15.5625 30.8125 C-16.366875 30.874375 -17.17125 30.93625 -18 31 C-19 30 -19 30 -19.28125 27.7265625 C-18.92269426 24.25056376 -17.77866791 22.9954681 -15.5 20.375 C-12.37871705 16.66951971 -9.40881831 12.92205163 -6.5625 9 C-5.90378906 8.0925 -5.24507813 7.185 -4.56640625 6.25 C-2.99141145 4.10282949 -2.99141145 4.10282949 -2 2 C-1.34 2 -0.68 2 0 2 C0 1.34 0 0.68 0 0 Z " fill="#59E7A5" transform="translate(373,23)"/>
<path d="M0 0 C0 1.65 0 3.3 0 5 C-6.39626061 8.05031345 -12.81052755 10.32545158 -19.625 12.25 C-20.52734375 12.518125 -21.4296875 12.78625 -22.359375 13.0625 C-27.41238301 14.50621658 -31.74599424 15.3166798 -37 15 C-37 13.35 -37 11.7 -37 10 C-29.60571011 7.15196011 -22.09167351 4.65153727 -14.5625 2.1875 C-13.59103027 1.86128662 -12.61956055 1.53507324 -11.61865234 1.19897461 C-10.23154053 0.75050171 -10.23154053 0.75050171 -8.81640625 0.29296875 C-7.57032593 -0.11659058 -7.57032593 -0.11659058 -6.29907227 -0.53442383 C-3.81543697 -1.03737514 -2.37424114 -0.8116568 0 0 Z " fill="#5DE7A5" transform="translate(37,126)"/>
<path d="M0 0 C0.32361203 3.49500989 0.55261165 6.011116 -1.1875 9.125 C-1.455625 9.74375 -1.72375 10.3625 -2 11 C-0.68134288 13.64225405 -0.68134288 13.64225405 1 16 C1 16.66 1 17.32 1 18 C-1.75 18.3125 -1.75 18.3125 -5 18 C-7.25 15.5625 -7.25 15.5625 -9 13 C-9.66 12.67 -10.32 12.34 -11 12 C-11 14.31 -11 16.62 -11 19 C-12.65 19 -14.3 19 -16 19 C-16 12.4 -16 5.8 -16 -1 C-4.84615385 -3.23076923 -4.84615385 -3.23076923 0 0 Z M-11 3 C-11 4.65 -11 6.3 -11 8 C-9.02 7.67 -7.04 7.34 -5 7 C-5.33 5.35 -5.66 3.7 -6 2 C-8.9254644 1.7763932 -8.9254644 1.7763932 -11 3 Z " fill="#FFFFFF" transform="translate(308,249)"/>
<path d="M0 0 C2 1.5625 2 1.5625 3 3 C2.67 3.99 2.34 4.98 2 6 C1.39671875 5.88140625 0.7934375 5.7628125 0.171875 5.640625 C-4.95697759 4.71891942 -4.95697759 4.71891942 -9.625 6.625 C-11.27199833 8.94278241 -11.27199833 8.94278241 -10.75 11.75 C-10.5025 12.4925 -10.255 13.235 -10 14 C-6.52852158 14.74957157 -6.52852158 14.74957157 -3 15 C-3 14.01 -3 13.02 -3 12 C-0.03 12.495 -0.03 12.495 3 13 C2.1342843 15.66929007 1.27808762 17.67741836 -0.5625 19.8125 C-4.31286868 21.63960269 -7.91132575 21.69898291 -12 21 C-14.50160818 19.12379387 -15.61945652 17.76108697 -17 15 C-17.25266539 10.53624483 -17.39825035 6.85805491 -15 3 C-9.63999152 -1.07360644 -6.51619152 -1.62904788 0 0 Z " fill="#FFFFFF" transform="translate(156,265)"/>
<path d="M0 0 C2.5625 1.875 2.5625 1.875 4 4 C4 4.66 4 5.32 4 6 C0.00259153 7.05813754 -2.96609477 6.80678105 -7 6 C-7.66 6 -8.32 6 -9 6 C-9 8.97 -9 11.94 -9 15 C-8.01 15.33 -7.02 15.66 -6 16 C-4.32580562 15.0126546 -2.65948148 14.01187895 -1 13 C0.32 13 1.64 13 3 13 C2.49654582 16.7255609 1.95060808 18.62885671 -1 21 C-5.36533634 22.36518946 -8.89206779 22.5539661 -13 20.5 C-15.62359981 17.22050024 -15.92908574 15.18394162 -16 11 C-15.31932334 6.98400771 -14.57169008 4.67563374 -11.9375 1.5625 C-7.91417077 -0.57756874 -4.46875244 -0.85039692 0 0 Z " fill="#FFFFFF" transform="translate(353,241)"/>
<path d="M0 0 C0 1.65 0 3.3 0 5 C-4.455 5.495 -4.455 5.495 -9 6 C-9 6.99 -9 7.98 -9 9 C-8.34 8.67 -7.68 8.34 -7 8 C-5.00039988 7.960008 -2.99952758 7.95653201 -1 8 C-1.33 9.65 -1.66 11.3 -2 13 C-4.31 13 -6.62 13 -9 13 C-8.67 13.99 -8.34 14.98 -8 16 C-5.36 16 -2.72 16 0 16 C0 17.65 0 19.3 0 21 C-4.62 21.33 -9.24 21.66 -14 22 C-14 15.4 -14 8.8 -14 2 C-8.52413817 0.43546805 -5.42372238 -0.22137642 0 0 Z " fill="#FFFFFF" transform="translate(286,249)"/>
<path d="M0 0 C1.2065625 0.0309375 1.2065625 0.0309375 2.4375 0.0625 C3.42209071 2.4562297 4.40028703 4.8522507 5.375 7.25 C5.79168945 8.26030273 5.79168945 8.26030273 6.21679688 9.29101562 C7.66371056 12.86471811 8.84913129 16.22693184 9.4375 20.0625 C7.4575 20.0625 5.4775 20.0625 3.4375 20.0625 C3.1075 19.0725 2.7775 18.0825 2.4375 17.0625 C0.1275 17.0625 -2.1825 17.0625 -4.5625 17.0625 C-5.5525 19.5375 -5.5525 19.5375 -6.5625 22.0625 C-8.2125 22.0625 -9.8625 22.0625 -11.5625 22.0625 C-4.61166018 0.11247952 -4.61166018 0.11247952 0 0 Z M-1.5625 7.0625 C-1.8925 8.7125 -2.2225 10.3625 -2.5625 12.0625 C-1.5725 12.0625 -0.5825 12.0625 0.4375 12.0625 C0.1075 10.4125 -0.2225 8.7625 -0.5625 7.0625 C-0.8925 7.0625 -1.2225 7.0625 -1.5625 7.0625 Z " fill="#FFFFFF" transform="translate(324.5625,243.9375)"/>
<path d="M0 0 C1.2065625 0.0309375 1.2065625 0.0309375 2.4375 0.0625 C5.7083579 6.25515192 8.44136732 12.3438095 10.4375 19.0625 C8.7875 19.3925 7.1375 19.7225 5.4375 20.0625 C4.7775 19.0725 4.1175 18.0825 3.4375 17.0625 C-0.14607241 16.81234127 -0.14607241 16.81234127 -3.5625 17.0625 C-4.2225 18.3825 -4.8825 19.7025 -5.5625 21.0625 C-7.2125 21.0625 -8.8625 21.0625 -10.5625 21.0625 C-9.57281083 16.85807164 -8.08360091 12.9109399 -6.5625 8.875 C-6.28921875 8.13830078 -6.0159375 7.40160156 -5.734375 6.64257812 C-3.27106238 0.07978201 -3.27106238 0.07978201 0 0 Z M-0.5625 6.0625 C-0.8925 7.7125 -1.2225 9.3625 -1.5625 11.0625 C-0.5725 11.0625 0.4175 11.0625 1.4375 11.0625 C1.1075 9.4125 0.7775 7.7625 0.4375 6.0625 C0.1075 6.0625 -0.2225 6.0625 -0.5625 6.0625 Z " fill="#FFFFFF" transform="translate(102.5625,270.9375)"/>
<path d="M0 0 C1.98 0 3.96 0 6 0 C9.01578157 6.26177547 11.58495328 12.18204762 13 19 C11.35 19 9.7 19 8 19 C7.67 18.01 7.34 17.02 7 16 C3.04 16.495 3.04 16.495 -1 17 C-1.33 18.32 -1.66 19.64 -2 21 C-3.65 21.33 -5.3 21.66 -7 22 C-7.28491328 17.85376205 -6.44547023 15.27183964 -4.625 11.5625 C-2.80991511 7.75750618 -1.2045276 4.05159284 0 0 Z M3 7 C2.34 8.65 1.68 10.3 1 12 C2.32 12 3.64 12 5 12 C4.67 10.35 4.34 8.7 4 7 C3.67 7 3.34 7 3 7 Z " fill="#FFFFFF" transform="translate(181,261)"/>
<path d="M0 0 C0.33 1.65 0.66 3.3 1 5 C-2.74218273 8.43958035 -7.02685009 9.40070055 -11.8125 10.6875 C-12.59431641 10.91244141 -13.37613281 11.13738281 -14.18164062 11.36914062 C-18.9410379 12.67727906 -23.06736498 13.24366822 -28 13 C-28 11.35 -28 9.7 -28 8 C-19.55384699 3.79926782 -9.56792931 -0.50357523 0 0 Z " fill="#59E7A5" transform="translate(378,65)"/>
<path d="M0 0 C0.97461174 2.58124443 1.13732128 3.6645189 0.07421875 6.26171875 C-0.61220703 7.46248047 -0.61220703 7.46248047 -1.3125 8.6875 C-3.8608528 13.45150399 -5.05858704 17.69385421 -6 23 C-7.65 23 -9.3 23 -11 23 C-11.03867187 22.03900391 -11.03867187 22.03900391 -11.078125 21.05859375 C-11.48516147 14.85128752 -12.74652689 11.24753728 -16 6 C-16 4.68 -16 3.36 -16 2 C-11.68607774 2.4793247 -9.83430453 3.7457985 -7 7 C-6.401875 6.030625 -5.80375 5.06125 -5.1875 4.0625 C-3 1 -3 1 0 0 Z " fill="#FFFFFF" transform="translate(377,237)"/>
<path d="M0 0 C0 1.65 0 3.3 0 5 C-2.70879335 6.35439668 -5.00933268 6.06501451 -8 6 C-8 6.99 -8 7.98 -8 9 C-5.69 9 -3.38 9 -1 9 C-1 10.32 -1 11.64 -1 13 C-3.31 13.33 -5.62 13.66 -8 14 C-7.979375 14.94875 -7.95875 15.8975 -7.9375 16.875 C-8 20 -8 20 -9 22 C-10.32 22 -11.64 22 -13 22 C-13.02888146 18.68751813 -13.04675799 15.37506833 -13.0625 12.0625 C-13.07087891 11.11697266 -13.07925781 10.17144531 -13.08789062 9.19726562 C-13.09111328 8.29814453 -13.09433594 7.39902344 -13.09765625 6.47265625 C-13.10289307 5.64000244 -13.10812988 4.80734863 -13.11352539 3.94946289 C-13 2 -13 2 -12 1 C-7.90213017 0.39539626 -4.14662899 0 0 0 Z " fill="#FFFFFF" transform="translate(54,276)"/>
<path d="M0 0 C-0.33 1.65 -0.66 3.3 -1 5 C-2.65 5 -4.3 5 -6 5 C-6 10.28 -6 15.56 -6 21 C-7.65 21.33 -9.3 21.66 -11 22 C-11 16.72 -11 11.44 -11 6 C-12.65 6 -14.3 6 -16 6 C-16 4.68 -16 3.36 -16 2 C-14.08404518 1.66259915 -12.16720278 1.33023588 -10.25 1 C-9.18265625 0.814375 -8.1153125 0.62875 -7.015625 0.4375 C-4 0 -4 0 0 0 Z " fill="#FFFFFF" transform="translate(267,251)"/>
<path d="M0 0 C1.65 0 3.3 0 5 0 C5.02701408 2.10409639 5.04640223 4.20829178 5.0625 6.3125 C5.07410156 7.48425781 5.08570313 8.65601563 5.09765625 9.86328125 C5 13 5 13 4 16 C6.64 15.67 9.28 15.34 12 15 C12 16.65 12 18.3 12 20 C8.04 20.33 4.08 20.66 0 21 C0 14.07 0 7.14 0 0 Z " fill="#FFFFFF" transform="translate(198,259)"/>
<path d="M0 0 C1.65 0 3.3 0 5 0 C5 4.62 5 9.24 5 14 C7.31 14.33 9.62 14.66 12 15 C11.67 16.65 11.34 18.3 11 20 C7.37 20.33 3.74 20.66 0 21 C0 14.07 0 7.14 0 0 Z " fill="#FFFFFF" transform="translate(225,256)"/>
<path d="M0 0 C1.32 0 2.64 0 4 0 C4 6.93 4 13.86 4 21 C2.35 21 0.7 21 -1 21 C-1.02888146 17.68751813 -1.04675799 14.37506833 -1.0625 11.0625 C-1.07087891 10.11697266 -1.07925781 9.17144531 -1.08789062 8.19726562 C-1.09111328 7.29814453 -1.09433594 6.39902344 -1.09765625 5.47265625 C-1.10289307 4.64000244 -1.10812988 3.80734863 -1.11352539 2.94946289 C-1 1 -1 1 0 0 Z " fill="#FFFFFF" transform="translate(60,275)"/>
<path d="M0 0 C1.32 0 2.64 0 4 0 C4 6.6 4 13.2 4 20 C2.35 20.33 0.7 20.66 -1 21 C-1.0270203 18.24993392 -1.04684883 15.50013454 -1.0625 12.75 C-1.07087891 11.97269531 -1.07925781 11.19539063 -1.08789062 10.39453125 C-1.09111328 9.64042969 -1.09433594 8.88632812 -1.09765625 8.109375 C-1.10289307 7.41811523 -1.10812988 6.72685547 -1.11352539 6.01464844 C-0.99437971 3.90026102 -0.57618237 2.03358485 0 0 Z " fill="#FFFFFF" transform="translate(165,263)"/>
<path d="M0 0 C1.32 0 2.64 0 4 0 C4 6.6 4 13.2 4 20 C2.35 20.33 0.7 20.66 -1 21 C-1.0269501 18.06243881 -1.04681474 15.12512445 -1.0625 12.1875 C-1.07087891 11.35412109 -1.07925781 10.52074219 -1.08789062 9.66210938 C-1.09111328 8.85966797 -1.09433594 8.05722656 -1.09765625 7.23046875 C-1.10289307 6.49207764 -1.10812988 5.75368652 -1.11352539 4.99291992 C-1 3 -1 3 0 0 Z " fill="#FFFFFF" transform="translate(243,254)"/>
</svg>
